<svg width="97" height="80" fill="none" xmlns="http://www.w3.org/2000/svg"><path d="M22.322 33.941l26.87-26.87c3.905-3.905 10.237-3.905 14.142 0l26.87 26.87 1.013 1.012a7.137 7.137 0 010 10.094v0L63.334 72.929c-3.905 3.905-10.237 3.905-14.142 0l-26.87-26.87" stroke="#fff" stroke-width="2"/><path d="M73.941 33.941l-26.87-26.87c-3.905-3.905-10.237-3.905-14.142 0l-26.87 26.87-1.012 1.012a7.137 7.137 0 000 10.094v0l27.882 27.882c3.905 3.905 10.237 3.905 14.142 0l26.87-26.87" stroke="#fff" stroke-width="2"/><path d="M18.775 42.4l-.711-1.816h-2.29l-.702 1.816H14.4l2.258-5.734h.558l2.246 5.734h-.687zm-.918-2.414l-.664-1.77a9.468 9.468 0 01-.266-.824 7.47 7.47 0 01-.246.824l-.672 1.77h1.848zm4.903-.578h1.94v2.777c-.301.096-.609.17-.921.219-.313.05-.675.074-1.086.074-.865 0-1.538-.257-2.02-.77-.481-.515-.722-1.236-.722-2.164 0-.593.118-1.113.355-1.558a2.42 2.42 0 011.031-1.024c.448-.237.973-.355 1.575-.355.609 0 1.177.112 1.703.336l-.258.586c-.516-.219-1.012-.328-1.488-.328-.696 0-1.239.207-1.63.62-.39.415-.585.99-.585 1.723 0 .771.187 1.356.562 1.754.378.399.931.598 1.66.598.396 0 .783-.046 1.16-.137v-1.758H22.76v-.593zm6.5 2.992h-3.184v-5.711h3.183v.59h-2.52v1.84h2.368v.586H26.74v2.101h2.52v.594zm5.73 0h-.758l-3.121-4.793h-.031c.041.562.062 1.078.062 1.547V42.4h-.613v-5.711h.75l3.113 4.773h.031c-.005-.07-.017-.295-.035-.675a11.778 11.778 0 01-.02-.82v-3.278h.622v5.71zm4.015-5.2c-.627 0-1.123.21-1.488.63-.362.416-.543.988-.543 1.714 0 .748.175 1.326.524 1.735.351.406.851.61 1.5.61.398 0 .852-.072 1.363-.216v.582c-.396.149-.884.223-1.465.223-.841 0-1.49-.255-1.95-.766-.455-.51-.683-1.235-.683-2.175 0-.589.11-1.105.328-1.547.222-.443.54-.784.953-1.024.417-.24.907-.36 1.47-.36.598 0 1.122.11 1.57.33l-.282.57a3.025 3.025 0 00-1.297-.305zm4.055 2.344l1.523-2.855h.72l-1.907 3.496V42.4h-.672v-2.184l-1.902-3.527h.726l1.512 2.855zm8.332 1.336c0 .503-.182.895-.547 1.176-.364.281-.86.422-1.484.422-.677 0-1.198-.087-1.563-.262v-.64c.235.099.49.177.766.234.276.057.55.086.82.086.443 0 .776-.083 1-.25a.832.832 0 00.336-.703c0-.198-.04-.36-.12-.484-.079-.128-.212-.245-.4-.352a5.485 5.485 0 00-.847-.363c-.531-.19-.911-.416-1.14-.676-.227-.26-.34-.6-.34-1.02 0-.44.165-.79.496-1.05.33-.26.768-.391 1.312-.391.568 0 1.09.104 1.567.312l-.207.579a3.538 3.538 0 00-1.375-.297c-.352 0-.627.075-.825.226a.747.747 0 00-.297.63c0 .197.037.36.11.487.073.125.195.241.367.348.175.104.44.22.797.348.599.213 1.01.442 1.234.687.227.245.34.563.34.953zm4.352 1.52H52.56v-5.711h3.184v.59h-2.52v1.84h2.367v.586h-2.367v2.101h2.52v.594zm1.933-2.375V42.4h-.664v-5.711h1.567c.7 0 1.217.134 1.55.402.336.268.504.672.504 1.211 0 .755-.383 1.266-1.148 1.532l1.55 2.566h-.785l-1.382-2.375h-1.192zm0-.57h.91c.47 0 .813-.093 1.032-.278.218-.187.328-.467.328-.84 0-.377-.112-.65-.336-.816-.221-.167-.578-.25-1.07-.25h-.864v2.184zm7.543-2.766h.715l-2.059 5.71h-.656l-2.047-5.71h.703l1.313 3.695c.151.425.27.837.36 1.239.093-.422.215-.843.367-1.262l1.304-3.672zm1.504 5.711v-5.711h.664v5.71h-.664zm4.68-5.2c-.628 0-1.124.21-1.489.63-.361.416-.542.988-.542 1.714 0 .748.174 1.326.523 1.735.352.406.852.61 1.5.61.398 0 .853-.072 1.363-.216v.582c-.396.149-.884.223-1.465.223-.84 0-1.49-.255-1.949-.766-.456-.51-.683-1.235-.683-2.175 0-.589.109-1.105.328-1.547.221-.443.539-.784.953-1.024.416-.24.906-.36 1.469-.36.599 0 1.122.11 1.57.33l-.281.57a3.026 3.026 0 00-1.297-.305zm5.785 5.2h-3.184v-5.711h3.184v.59h-2.52v1.84h2.368v.586h-2.368v2.101h2.52v.594zm4.492-1.52c0 .503-.182.895-.547 1.176-.364.281-.86.422-1.484.422-.677 0-1.198-.087-1.563-.262v-.64c.235.099.49.177.766.234.276.057.55.086.82.086.443 0 .776-.083 1-.25a.832.832 0 00.336-.703c0-.198-.04-.36-.12-.484-.079-.128-.212-.245-.4-.352a5.483 5.483 0 00-.847-.363c-.531-.19-.911-.416-1.14-.676-.227-.26-.34-.6-.34-1.02 0-.44.165-.79.496-1.05.33-.26.768-.391 1.312-.391.568 0 1.09.104 1.567.312l-.207.579a3.539 3.539 0 00-1.375-.297c-.352 0-.627.075-.825.226a.747.747 0 00-.296.63c0 .197.036.36.109.487.073.125.195.241.367.348.174.104.44.22.797.348.599.213 1.01.442 1.234.687.227.245.34.563.34.953zM42.37 24.92h1.713l-2.72 8h-1.849l-2.714-8h1.713l1.505 4.761c.084.28.17.61.257.985.09.372.148.631.17.777.04-.336.176-.923.41-1.762l1.516-4.76zm9.16 8h-1.926l-2.095-3.37-.717.514v2.856h-1.697v-8h1.697v3.661l.667-.941 2.167-2.72h1.883l-2.791 3.54 2.813 4.46zm5.571-8h1.713l-2.72 8h-1.85l-2.713-8h1.712l1.505 4.761c.084.28.17.61.257.985.091.372.148.631.17.777.04-.336.177-.923.41-1.762l1.516-4.76z" fill="#fff"/></svg>